<svg width="154" height="32" viewBox="0 0 154 32" fill="none" xmlns="http://www.w3.org/2000/svg">
<path d="M10.339 31.484V3.7165H0V0H24.8752V3.7165H14.4922V31.484H10.339ZM27.0585 4.44663V0H30.9107V4.44663H27.0585ZM27.0585 31.484V8.67623H30.9107V31.484H27.0585ZM37.12 31.484V0H41.2717V15.6137L56.8557 0H62.4864L49.3209 12.7578L63.0636 31.484H57.5835L46.4099 15.5492L41.2717 20.5749V31.484H37.12ZM65.4836 16.0653C65.4836 14.5611 66.0112 13.2797 67.0678 12.2198C68.1375 11.1613 69.4147 10.6305 70.8995 10.6305C72.3974 10.6305 73.6746 11.1613 74.7312 12.2198C75.8009 13.2797 76.3357 14.5611 76.3357 16.0653C76.3357 17.568 75.8009 18.8567 74.7312 19.9299C73.6746 20.9898 72.3974 21.5191 70.8995 21.5191C69.4147 21.5191 68.1375 20.9898 67.0678 19.9299C66.0112 18.8567 65.4836 17.568 65.4836 16.0653ZM89.887 31.484V3.7165H79.5478V0H104.422V3.7165H94.0402V31.484H89.887ZM118.166 28.6706C116.738 29.8874 115.362 30.7465 114.033 31.2479C112.721 31.7493 111.308 32 109.795 32C107.298 32 105.379 31.3916 104.037 30.1747C102.696 28.9432 102.025 27.3746 102.025 25.4716C102.025 24.3545 102.274 23.337 102.773 22.4207C103.288 21.4912 103.951 20.7464 104.765 20.1879C105.592 19.6293 106.52 19.2071 107.548 18.9212C108.303 18.7203 109.446 18.5268 110.973 18.3406C114.084 17.9682 116.374 17.5255 117.844 17.0094C117.859 16.4802 117.865 16.1429 117.865 16.0007C117.865 14.4247 117.501 13.3164 116.773 12.6713C115.79 11.7975 114.327 11.3621 112.385 11.3621C110.573 11.3621 109.231 11.6831 108.362 12.3282C107.505 12.9572 106.87 14.0817 106.456 15.6987L102.689 15.1841C103.031 13.5656 103.595 12.2637 104.379 11.2756C105.164 10.2728 106.298 9.50753 107.783 8.97827C109.268 8.43289 110.986 8.16166 112.941 8.16166C114.882 8.16166 116.46 8.39036 117.673 8.84924C118.886 9.30666 119.778 9.88723 120.349 10.588C120.919 11.2756 121.319 12.1494 121.547 13.2079C121.676 13.8661 121.74 15.0551 121.74 16.7734V21.9281C121.74 25.5214 121.819 27.7968 121.976 28.7571C122.147 29.7012 122.475 30.6102 122.961 31.484H118.936C118.536 30.682 118.28 29.7452 118.166 28.6706ZM117.844 20.0369C116.446 20.6101 114.347 21.0968 111.55 21.4985C109.966 21.7272 108.847 21.9853 108.189 22.2712C107.533 22.557 107.026 22.9793 106.669 23.5379C106.313 24.0818 106.134 24.6902 106.134 25.3631C106.134 26.3938 106.52 27.2529 107.29 27.9405C108.075 28.6281 109.216 28.9711 110.716 28.9711C112.199 28.9711 113.52 28.6486 114.676 28.005C115.832 27.3467 116.681 26.4509 117.223 25.3206C117.637 24.4468 117.844 23.1581 117.844 21.4545V20.0369ZM128.055 31.484V0H132.208V15.6137L147.792 0H153.421L140.257 12.7578L154 31.484H148.52L137.346 15.5492L132.208 20.5749V31.484H128.055Z" fill="#F9F8F6"/>
<circle cx="71" cy="16" r="6" fill="#38A3A5"/>
</svg>
