<svg width="380" height="615" viewBox="0 0 443 615" fill="none" xmlns="http://www.w3.org/2000/svg">
<g filter="url(#filter0_dii_231_636)">
<path d="M121.353 130.371C121.353 130.371 149.538 77.8463 146.41 38.9586C146.41 38.9586 158.938 19 220.534 19C282.13 19 299.87 32.6586 299.87 32.6586C299.87 32.6586 310.533 112.507 325.151 127.217C325.151 127.217 256.028 140.876 218.451 140.876C180.873 140.876 121.353 130.371 121.353 130.371Z" fill="url(#paint0_linear_231_636)"/>
</g>
<g filter="url(#filter1_dii_231_636)">
<path d="M326.232 451.364C326.232 451.364 295.746 502.772 297.423 541.739C297.423 541.739 284.001 561.205 221.759 558.834C159.517 556.463 142.104 542.16 142.104 542.16C142.104 542.16 134.381 461.926 120.169 446.666C120.169 446.666 190.54 435.682 228.517 437.125C266.494 438.568 326.232 451.364 326.232 451.364Z" fill="url(#paint1_linear_231_636)"/>
</g>
<path d="M358.283 259.988H370.071C377.379 259.988 383.303 254.071 383.303 246.771V212.226C383.303 204.927 377.379 199.01 370.071 199.01H358.283C350.975 199.01 345.051 204.927 345.051 212.226V246.771C345.051 254.071 350.975 259.988 358.283 259.988Z" fill="#E3DEDA"/>
<g filter="url(#filter2_dii_231_636)">
<path d="M314.129 126.206H128.687C96.2964 126.206 70.0383 152.432 70.0383 184.784V396.491C70.0383 428.843 96.2964 455.069 128.687 455.069H314.129C346.52 455.069 372.778 428.843 372.778 396.491V184.784C372.778 152.432 346.52 126.206 314.129 126.206Z" fill="url(#paint2_linear_231_636)"/>
</g>
<path d="M318.694 148.168H131.474C109.879 148.168 92.3727 165.653 92.3727 187.222V396.066C92.3727 417.635 109.879 435.121 131.474 435.121H318.694C340.29 435.121 357.796 417.635 357.796 396.066V187.222C357.796 165.653 340.29 148.168 318.694 148.168Z" fill="#4F5964"/>
<path d="M305.788 163.16H142.798C122.882 163.16 106.737 179.285 106.737 199.176V383.364C106.737 403.255 122.882 419.381 142.798 419.381H305.788C325.704 419.381 341.849 403.255 341.849 383.364V199.176C341.849 179.285 325.704 163.16 305.788 163.16Z" fill="#030C10" stroke="black" stroke-width="0.5" stroke-miterlimit="10"/>
<path d="M263.188 291.256C263.188 344.223 293.783 389.056 335.963 404.142C340.274 398.071 342.585 390.809 342.575 383.364V199.184C342.585 191.737 340.271 184.472 335.955 178.399C293.783 193.471 263.188 238.333 263.188 291.256Z" fill="#38A3A5"/>
<path d="M136.029 268.296H138.102V229.985H136.029C133.371 231.578 127.948 235.215 125.503 236.755V239.092C128.081 237.472 134.009 233.543 135.976 232.348H136.029V268.296ZM163.408 229.428C152.961 229.428 146.316 237.074 146.316 249.128C146.316 261.234 152.935 268.854 163.408 268.854C173.881 268.854 180.5 261.234 180.5 249.128C180.5 237.074 173.854 229.428 163.408 229.428ZM163.408 231.393C172.525 231.393 178.347 238.295 178.347 249.128C178.347 259.986 172.525 266.889 163.408 266.889C154.29 266.889 148.469 259.986 148.469 249.128C148.469 238.295 154.264 231.393 163.408 231.393ZM199.984 268.509C200.941 268.509 201.739 267.712 201.739 266.729C201.739 265.774 200.941 264.977 199.984 264.977C199.001 264.977 198.203 265.774 198.203 266.729C198.203 267.712 199.001 268.509 199.984 268.509ZM199.984 247.933C200.941 247.933 201.739 247.136 201.739 246.154C201.739 245.198 200.941 244.402 199.984 244.402C199.001 244.402 198.203 245.198 198.203 246.154C198.203 247.136 199.001 247.933 199.984 247.933ZM218.113 268.296H220.186V229.985H218.113C215.454 231.578 210.032 235.215 207.587 236.755V239.092C210.165 237.472 216.092 233.543 218.06 232.348H218.113V268.296ZM245.492 229.428C235.045 229.428 228.4 237.074 228.4 249.128C228.4 261.234 235.019 268.854 245.492 268.854C255.965 268.854 262.584 261.234 262.584 249.128C262.584 237.074 255.938 229.428 245.492 229.428ZM245.492 231.393C254.609 231.393 260.431 238.295 260.431 249.128C260.431 259.986 254.609 266.889 245.492 266.889C236.374 266.889 230.553 259.986 230.553 249.128C230.553 238.295 236.348 231.393 245.492 231.393Z" fill="white"/>
<path d="M141.95 220.303H133.901V205.754H133.061V221.078H141.95V220.303ZM152.029 210.034H151.2V216.66C151.2 218.997 149.616 220.505 147.521 220.505C145.511 220.505 144.182 219.252 144.182 217.096V210.034H143.363V217.224C143.363 219.698 144.969 221.248 147.351 221.248C149.18 221.248 150.732 220.165 151.222 218.679H151.253V221.078H152.029V210.034ZM154.486 221.078H155.315V214.483C155.315 212.189 156.782 210.608 158.919 210.608C160.971 210.608 162.321 211.892 162.321 214.027V221.078H163.151V213.921C163.151 211.435 161.545 209.864 159.111 209.864C157.229 209.864 155.783 210.916 155.283 212.434H155.262V210.034H154.486V221.078ZM166.49 221.163C166.872 221.163 167.191 220.845 167.191 220.452C167.191 220.07 166.872 219.751 166.49 219.751C166.096 219.751 165.777 220.07 165.777 220.452C165.777 220.845 166.096 221.163 166.49 221.163ZM177.505 209.885H178.324C178.377 207.804 180.014 206.285 182.194 206.285C184.342 206.285 186.001 207.782 186.001 209.726C186.001 211.149 185.373 212.189 183.013 214.664L177.558 220.441V221.078H187.415V220.314H178.771V220.271L183.566 215.206C186.096 212.561 186.841 211.319 186.841 209.694C186.841 207.347 184.821 205.531 182.216 205.531C179.536 205.531 177.558 207.357 177.505 209.885ZM196.208 221.078H197.037V217.245H199.472V216.48H197.037V205.701L195.825 205.712C192.742 209.864 190.455 213.146 188.308 216.47V217.245H196.208V221.078ZM189.233 216.459C191.168 213.485 193.475 210.162 196.187 206.551H196.208V216.48H189.233V216.459ZM210.168 221.248C213.103 221.248 215.102 219.061 215.102 215.556C215.102 212.052 213.103 209.864 210.168 209.864C207.234 209.864 205.245 212.052 205.245 215.556C205.245 219.061 207.234 221.248 210.168 221.248ZM210.168 220.505C207.713 220.505 206.075 218.625 206.075 215.556C206.075 212.487 207.713 210.608 210.168 210.608C212.624 210.608 214.273 212.487 214.273 215.556C214.273 218.615 212.624 220.505 210.168 220.505ZM225.756 213.368C225.426 211.393 223.715 209.864 221.322 209.864C218.366 209.864 216.453 212.073 216.453 215.556C216.453 219.072 218.356 221.248 221.333 221.248C223.683 221.248 225.416 219.847 225.745 217.839H224.926C224.587 219.422 223.215 220.505 221.333 220.505C218.855 220.505 217.282 218.604 217.282 215.556C217.282 212.529 218.855 210.608 221.333 210.608C223.236 210.608 224.608 211.786 224.937 213.368H225.756ZM228.191 207.135V210.034H226.543V210.745H228.191V218.561C228.191 220.388 228.882 221.099 230.498 221.099C230.626 221.099 231.307 221.089 231.381 221.078V220.356C231.338 220.356 230.669 220.367 230.615 220.367C229.498 220.367 229.009 219.847 229.009 218.54V210.745H231.232V210.034H229.009V207.135H228.191ZM234.688 221.163C235.07 221.163 235.389 220.845 235.389 220.452C235.389 220.07 235.07 219.751 234.688 219.751C234.294 219.751 233.975 220.07 233.975 220.452C233.975 220.845 234.294 221.163 234.688 221.163Z" fill="white"/>
<path d="M147.319 347.202V333.471H142.183V331.634H154.539V333.471H149.382V347.202H147.319ZM155.623 333.832V331.634H157.537V333.832H155.623ZM155.623 347.202V335.924H157.537V347.202H155.623ZM160.621 347.202V331.634H162.683V339.355L170.423 331.634H173.22L166.681 337.942L173.507 347.202H170.785L165.235 339.323L162.683 341.808V347.202H160.621ZM174.709 339.578C174.709 338.834 174.971 338.2 175.496 337.676C176.027 337.153 176.661 336.89 177.399 336.89C178.143 336.89 178.777 337.153 179.302 337.676C179.833 338.2 180.099 338.834 180.099 339.578C180.099 340.321 179.833 340.958 179.302 341.489C178.777 342.013 178.143 342.275 177.399 342.275C176.661 342.275 176.027 342.013 175.496 341.489C174.971 340.958 174.709 340.321 174.709 339.578ZM186.83 347.202V333.471H181.694V331.634H194.049V333.471H188.893V347.202H186.83ZM200.876 345.811C200.167 346.413 199.483 346.838 198.823 347.086C198.171 347.334 197.469 347.458 196.718 347.458C195.478 347.458 194.525 347.157 193.858 346.555C193.192 345.946 192.859 345.17 192.859 344.229C192.859 343.677 192.982 343.174 193.23 342.721C193.486 342.261 193.815 341.893 194.22 341.616C194.631 341.34 195.092 341.131 195.602 340.99C195.977 340.891 196.545 340.795 197.303 340.703C198.849 340.519 199.986 340.3 200.716 340.045C200.723 339.783 200.726 339.616 200.726 339.546C200.726 338.767 200.546 338.219 200.184 337.9C199.696 337.467 198.969 337.252 198.004 337.252C197.104 337.252 196.438 337.411 196.006 337.73C195.581 338.041 195.265 338.597 195.06 339.397L193.188 339.142C193.358 338.342 193.638 337.698 194.028 337.209C194.418 336.713 194.981 336.335 195.719 336.073C196.456 335.804 197.31 335.669 198.281 335.669C199.245 335.669 200.029 335.783 200.631 336.01C201.234 336.236 201.676 336.523 201.96 336.869C202.243 337.209 202.442 337.641 202.556 338.165C202.619 338.49 202.651 339.078 202.651 339.928V342.477C202.651 344.254 202.691 345.379 202.768 345.854C202.853 346.321 203.016 346.77 203.257 347.202H201.258C201.06 346.806 200.933 346.343 200.876 345.811ZM200.716 341.542C200.022 341.825 198.979 342.066 197.59 342.265C196.803 342.378 196.247 342.505 195.92 342.647C195.595 342.788 195.343 342.997 195.166 343.273C194.988 343.542 194.9 343.843 194.9 344.176C194.9 344.685 195.092 345.11 195.474 345.45C195.864 345.79 196.431 345.96 197.175 345.96C197.912 345.96 198.568 345.8 199.143 345.482C199.717 345.157 200.138 344.714 200.408 344.155C200.613 343.723 200.716 343.085 200.716 342.243V341.542ZM205.788 347.202V331.634H207.851V339.355L215.591 331.634H218.387L211.849 337.942L218.675 347.202H215.953L210.403 339.323L207.851 341.808V347.202H205.788Z" fill="white"/>
<path d="M180.937 290.031C177.406 290.25 174.049 291.642 171.399 293.985L178.005 300.583C178.868 299.944 179.875 299.528 180.937 299.371V290.031Z" fill="#BBBDBF"/>
<path d="M166.033 306.916C166.253 310.444 167.643 313.798 169.982 316.451L176.598 309.843C175.956 308.983 175.537 307.977 175.375 306.916H166.033Z" fill="#929497"/>
<path d="M169.991 295.391C167.641 298.037 166.248 301.395 166.033 304.925H175.375C175.538 303.862 175.958 302.854 176.598 301.989L169.991 295.391Z" fill="#A6A8AB"/>
<path d="M192.484 293.985C189.828 291.642 186.466 290.251 182.929 290.031V299.371C183.995 299.525 185.005 299.941 185.869 300.583L192.484 293.985Z" fill="#231F20"/>
<path d="M187.286 309.852L193.892 316.451C196.239 313.802 197.629 310.446 197.841 306.916H188.499C188.336 307.977 187.92 308.984 187.286 309.852Z" fill="#58595B"/>
<path d="M197.841 304.925C197.63 301.395 196.239 298.038 193.892 295.391L187.286 301.989C187.926 302.854 188.346 303.862 188.508 304.925H197.841Z" fill="#404041"/>
<path d="M171.399 317.856C174.047 320.2 177.406 321.589 180.937 321.801V312.47C179.877 312.305 178.872 311.89 178.005 311.258L171.399 317.856Z" fill="#808284"/>
<path d="M182.929 321.801C186.466 321.588 189.829 320.2 192.484 317.856L185.869 311.258C185.002 311.895 183.993 312.31 182.929 312.47V321.801Z" fill="#6D6E70"/>
<path style="mix-blend-mode:multiply" d="M159.151 322.485C159.151 324.341 152.27 325.845 143.784 325.845C135.296 325.845 128.412 324.341 128.412 322.485C128.412 320.629 135.292 319.126 143.784 319.126C152.276 319.126 159.151 320.629 159.151 322.485Z" fill="url(#paint3_radial_231_636)"/>
<path d="M143.784 323.024C140.766 323.024 137.816 322.131 135.306 320.457C132.797 318.783 130.841 316.404 129.685 313.619C128.53 310.835 128.228 307.771 128.816 304.814C129.405 301.859 130.858 299.143 132.991 297.012C135.125 294.881 137.844 293.429 140.804 292.841C143.764 292.253 146.832 292.556 149.619 293.71C152.407 294.863 154.789 296.817 156.465 299.323C158.141 301.83 159.036 304.777 159.035 307.791C159.03 311.829 157.421 315.701 154.562 318.556C151.703 321.412 147.827 323.019 143.784 323.024Z" fill="url(#paint4_radial_231_636)"/>
<path d="M143.784 292.67C146.778 292.67 149.705 293.556 152.194 295.218C154.684 296.88 156.625 299.242 157.771 302.005C158.916 304.767 159.216 307.808 158.632 310.741C158.048 313.674 156.606 316.369 154.489 318.483C152.371 320.598 149.674 322.039 146.737 322.621C143.8 323.205 140.756 322.906 137.99 321.762C135.223 320.617 132.859 318.679 131.195 316.192C129.532 313.705 128.644 310.782 128.644 307.791C128.648 303.781 130.244 299.938 133.082 297.103C135.921 294.268 139.769 292.673 143.784 292.67ZM143.784 292.438C140.743 292.437 137.771 293.337 135.242 295.023C132.714 296.709 130.743 299.107 129.578 301.912C128.414 304.717 128.109 307.805 128.702 310.783C129.294 313.762 130.758 316.498 132.908 318.646C135.057 320.794 137.796 322.256 140.778 322.849C143.761 323.442 146.851 323.138 149.66 321.976C152.469 320.814 154.871 318.846 156.56 316.321C158.249 313.796 159.151 310.827 159.151 307.791C159.152 305.775 158.755 303.779 157.982 301.916C157.21 300.053 156.078 298.361 154.651 296.935C153.224 295.509 151.53 294.379 149.665 293.606C147.801 292.835 145.802 292.438 143.784 292.438Z" fill="#8C98A0"/>
<path style="mix-blend-mode:screen" opacity="0.6" d="M143.676 310.946C143.676 312.021 143.358 313.071 142.76 313.964C142.162 314.858 141.313 315.554 140.319 315.966C139.325 316.377 138.231 316.484 137.176 316.275C136.12 316.065 135.151 315.548 134.39 314.788C133.63 314.028 133.111 313.06 132.902 312.006C132.692 310.952 132.799 309.86 133.211 308.867C133.623 307.874 134.32 307.026 135.215 306.428C136.109 305.832 137.161 305.513 138.237 305.513C138.951 305.513 139.659 305.653 140.319 305.927C140.979 306.199 141.578 306.599 142.083 307.104C142.589 307.609 142.989 308.207 143.263 308.867C143.536 309.526 143.676 310.232 143.676 310.946Z" fill="url(#paint5_radial_231_636)"/>
<path style="mix-blend-mode:screen" opacity="0.8" d="M138.274 301.578C138.273 301.835 138.196 302.088 138.052 302.301C137.908 302.515 137.704 302.682 137.465 302.779C137.226 302.877 136.964 302.903 136.711 302.852C136.458 302.801 136.226 302.676 136.044 302.494C135.862 302.311 135.738 302.079 135.688 301.826C135.638 301.573 135.664 301.311 135.763 301.074C135.862 300.836 136.029 300.632 136.244 300.489C136.458 300.346 136.711 300.27 136.969 300.27C137.14 300.27 137.311 300.304 137.469 300.37C137.628 300.436 137.772 300.532 137.893 300.653C138.015 300.775 138.111 300.919 138.176 301.078C138.241 301.237 138.275 301.406 138.274 301.578Z" fill="url(#paint6_radial_231_636)"/>
<path style="mix-blend-mode:screen" opacity="0.8" d="M138.632 312.282C138.632 312.683 138.512 313.076 138.289 313.409C138.066 313.742 137.749 314.003 137.377 314.156C137.006 314.309 136.598 314.349 136.204 314.27C135.81 314.192 135.448 313.998 135.164 313.714C134.881 313.43 134.688 313.068 134.61 312.675C134.532 312.282 134.573 311.874 134.727 311.503C134.882 311.133 135.143 310.816 135.477 310.594C135.812 310.372 136.205 310.254 136.606 310.255C136.873 310.255 137.136 310.307 137.382 310.409C137.628 310.511 137.852 310.661 138.04 310.849C138.228 311.037 138.377 311.261 138.479 311.507C138.58 311.752 138.632 312.016 138.632 312.282Z" fill="url(#paint7_radial_231_636)"/>
<path style="mix-blend-mode:screen" opacity="0.8" d="M148.215 299.244C148.215 299.727 148.072 300.199 147.804 300.6C147.535 301.002 147.153 301.314 146.707 301.499C146.26 301.684 145.769 301.733 145.295 301.638C144.821 301.544 144.386 301.311 144.044 300.97C143.703 300.629 143.47 300.194 143.375 299.721C143.281 299.247 143.329 298.757 143.515 298.311C143.699 297.865 144.012 297.484 144.415 297.215C144.816 296.947 145.289 296.804 145.772 296.804C146.419 296.805 147.04 297.062 147.498 297.52C147.956 297.977 148.214 298.598 148.215 299.244Z" fill="url(#paint8_radial_231_636)"/>
<path style="mix-blend-mode:screen" d="M145.395 304.348C145.395 304.448 145.366 304.544 145.311 304.627C145.256 304.709 145.177 304.773 145.086 304.811C144.994 304.849 144.893 304.859 144.796 304.84C144.698 304.82 144.609 304.773 144.539 304.703C144.469 304.633 144.421 304.543 144.401 304.446C144.383 304.349 144.392 304.248 144.431 304.156C144.468 304.065 144.533 303.987 144.615 303.932C144.698 303.876 144.794 303.847 144.894 303.847C144.96 303.847 145.025 303.859 145.087 303.884C145.148 303.909 145.204 303.946 145.25 303.992C145.296 304.04 145.333 304.095 145.359 304.156C145.384 304.217 145.396 304.282 145.395 304.348Z" fill="url(#paint9_radial_231_636)"/>
<path style="mix-blend-mode:screen" d="M140.954 305.239C140.954 305.443 140.894 305.642 140.781 305.811C140.667 305.981 140.506 306.113 140.318 306.19C140.129 306.269 139.922 306.289 139.722 306.249C139.522 306.209 139.338 306.111 139.194 305.967C139.05 305.824 138.951 305.639 138.912 305.44C138.872 305.24 138.892 305.033 138.97 304.845C139.048 304.656 139.181 304.495 139.35 304.382C139.52 304.269 139.719 304.209 139.923 304.209C140.197 304.209 140.459 304.318 140.652 304.511C140.846 304.703 140.954 304.966 140.954 305.239Z" fill="url(#paint10_radial_231_636)"/>
<path style="mix-blend-mode:screen" opacity="0.8" d="M158.445 306.771C158.445 308.186 158.024 309.569 157.237 310.746C156.45 311.921 155.331 312.839 154.023 313.38C152.714 313.922 151.273 314.064 149.884 313.788C148.495 313.511 147.218 312.83 146.216 311.829C145.214 310.829 144.532 309.554 144.256 308.166C143.979 306.778 144.121 305.339 144.663 304.032C145.206 302.725 146.123 301.608 147.301 300.821C148.479 300.036 149.864 299.616 151.281 299.616C152.222 299.615 153.154 299.8 154.023 300.159C154.893 300.518 155.683 301.045 156.348 301.71C157.013 302.374 157.541 303.163 157.9 304.032C158.26 304.9 158.445 305.831 158.445 306.771Z" fill="url(#paint11_radial_231_636)"/>
<path style="mix-blend-mode:screen" d="M145.275 309.847C149.771 305.267 154.831 302.887 156.828 304.325C156.777 304.251 156.718 304.182 156.652 304.121C154.817 302.321 149.549 304.715 144.884 309.466C140.22 314.218 137.916 319.525 139.774 321.325C139.84 321.388 139.91 321.445 139.983 321.497C138.488 319.53 140.778 314.431 145.275 309.847Z" fill="url(#paint12_linear_231_636)"/>
<path style="mix-blend-mode:screen" opacity="0.4" d="M146.631 308.742C148.852 301.346 148.903 294.757 146.766 293.63C146.854 293.639 146.941 293.658 147.026 293.686C149.405 294.419 149.451 301.23 147.133 308.9C144.815 316.569 141.01 322.188 138.632 321.45C138.548 321.425 138.467 321.391 138.39 321.348C140.773 321.627 144.396 316.138 146.631 308.742Z" fill="url(#paint13_linear_231_636)"/>
<path style="mix-blend-mode:screen" opacity="0.7" d="M143.11 314.83C136.453 313.011 131.524 309.661 131.793 307.202C131.754 307.284 131.721 307.37 131.696 307.457C131.018 309.935 136.063 313.489 142.966 315.345C149.869 317.201 156.015 316.737 156.689 314.268C156.717 314.186 156.737 314.1 156.749 314.013C155.717 316.264 149.781 316.649 143.11 314.83Z" fill="url(#paint14_linear_231_636)"/>
<path style="mix-blend-mode:screen" d="M142.929 299.908C149.214 298.572 154.779 299.518 155.69 302.015C155.683 301.916 155.669 301.818 155.648 301.722C155.072 299.017 149.316 297.95 142.813 299.337C136.309 300.724 131.482 304.037 132.058 306.752C132.081 306.846 132.109 306.939 132.142 307.03C131.951 304.381 136.648 301.253 142.929 299.908Z" fill="url(#paint15_linear_231_636)"/>
<path style="mix-blend-mode:screen" d="M149.498 303.448C154.236 309.657 155.355 316.825 152.136 319.813C152.276 319.73 152.411 319.64 152.541 319.544C156.196 316.76 155.179 309.29 150.273 302.84C145.368 296.391 138.418 293.458 134.767 296.238C134.637 296.335 134.512 296.441 134.395 296.553C138.139 294.261 144.764 297.24 149.498 303.448Z" fill="url(#paint16_linear_231_636)"/>
<path style="mix-blend-mode:screen" d="M136.732 308.213C136.499 300.789 138.739 294.688 141.786 294.173C141.673 294.166 141.56 294.166 141.447 294.173C138.228 294.275 135.807 300.581 136.049 308.255C136.29 315.929 139.096 322.049 142.316 321.951C142.429 321.946 142.543 321.934 142.654 321.914C139.561 321.59 136.959 315.637 136.732 308.213Z" fill="url(#paint17_linear_231_636)"/>
<path style="mix-blend-mode:screen" opacity="0.7" d="M148.035 318.773C141.884 320.982 136.054 320.505 134.665 317.748C134.688 317.86 134.719 317.97 134.757 318.077C135.844 321.108 141.884 321.706 148.267 319.414C154.649 317.122 158.909 312.816 157.818 309.787C157.779 309.68 157.734 309.576 157.683 309.476C158.371 312.482 154.175 316.565 148.035 318.773Z" fill="url(#paint18_linear_231_636)"/>
<g style="mix-blend-mode:screen">
<path d="M152.963 299.026C152.963 301.601 148.852 303.689 143.784 303.689C138.715 303.689 134.599 301.601 134.599 299.049C134.599 296.498 138.711 294.359 143.784 294.359C148.856 294.359 152.963 296.447 152.963 299.026Z" fill="url(#paint19_linear_231_636)"/>
</g>
<path d="M222.512 324.446C219.102 324.446 215.769 323.436 212.934 321.544C210.1 319.652 207.889 316.963 206.585 313.817C205.28 310.67 204.939 307.208 205.604 303.869C206.269 300.529 207.911 297.46 210.322 295.052C212.733 292.644 215.805 291.005 219.149 290.34C222.493 289.676 225.959 290.016 229.109 291.32C232.259 292.623 234.951 294.83 236.845 297.661C238.74 300.493 239.751 303.822 239.751 307.227C239.745 311.793 237.927 316.168 234.695 319.396C231.464 322.624 227.082 324.44 222.512 324.446Z" fill="url(#paint20_linear_231_636)"/>
<path d="M222.512 290.19C225.885 290.19 229.183 291.189 231.988 293.062C234.793 294.934 236.98 297.594 238.271 300.707C239.562 303.82 239.9 307.246 239.241 310.551C238.584 313.856 236.959 316.892 234.573 319.274C232.187 321.657 229.148 323.279 225.84 323.937C222.531 324.594 219.101 324.257 215.984 322.967C212.867 321.678 210.203 319.494 208.329 316.692C206.454 313.891 205.454 310.597 205.454 307.227C205.458 302.71 207.256 298.379 210.455 295.184C213.653 291.99 217.989 290.194 222.512 290.19ZM222.512 289.828C219.066 289.828 215.698 290.848 212.833 292.76C209.969 294.672 207.735 297.389 206.417 300.569C205.098 303.748 204.754 307.247 205.426 310.621C206.098 313.997 207.757 317.097 210.193 319.531C212.63 321.964 215.734 323.621 219.113 324.292C222.492 324.964 225.995 324.619 229.178 323.302C232.362 321.985 235.082 319.755 236.996 316.894C238.91 314.032 239.932 310.669 239.932 307.227C239.932 302.613 238.097 298.187 234.83 294.924C231.563 291.661 227.132 289.828 222.512 289.828Z" fill="#B2B4B7"/>
<path d="M235.214 307.227C235.214 309.736 234.469 312.189 233.074 314.276C231.678 316.362 229.694 317.988 227.373 318.948C225.051 319.909 222.498 320.16 220.034 319.67C217.569 319.181 215.306 317.972 213.53 316.198C211.753 314.424 210.544 312.163 210.053 309.702C209.563 307.241 209.815 304.69 210.776 302.372C211.738 300.054 213.366 298.072 215.455 296.678C217.543 295.284 219.999 294.54 222.512 294.54C224.18 294.539 225.832 294.867 227.374 295.504C228.915 296.141 230.316 297.076 231.496 298.254C232.676 299.432 233.611 300.831 234.249 302.371C234.887 303.91 235.215 305.561 235.214 307.227Z" fill="url(#paint21_linear_231_636)"/>
<path d="M222.512 317.74C220.43 317.74 218.395 317.123 216.664 315.969C214.934 314.813 213.584 313.172 212.788 311.25C211.991 309.33 211.783 307.216 212.189 305.177C212.595 303.138 213.597 301.265 215.069 299.794C216.541 298.324 218.416 297.323 220.458 296.918C222.5 296.512 224.616 296.72 226.539 297.516C228.462 298.311 230.106 299.659 231.262 301.387C232.419 303.116 233.036 305.148 233.036 307.227C233.033 310.014 231.922 312.686 229.949 314.656C227.977 316.628 225.302 317.736 222.512 317.74Z" fill="url(#paint22_radial_231_636)"/>
<path d="M222.512 297.078C224.522 297.078 226.487 297.673 228.157 298.789C229.828 299.904 231.131 301.488 231.9 303.344C232.669 305.198 232.87 307.239 232.478 309.207C232.086 311.176 231.118 312.985 229.697 314.405C228.276 315.824 226.465 316.791 224.494 317.182C222.523 317.574 220.48 317.373 218.623 316.605C216.766 315.837 215.179 314.535 214.062 312.866C212.946 311.197 212.35 309.235 212.35 307.227C212.35 304.536 213.42 301.954 215.327 300.051C217.232 298.147 219.817 297.078 222.512 297.078ZM222.512 296.353C220.358 296.353 218.253 296.991 216.462 298.186C214.673 299.38 213.277 301.079 212.453 303.066C211.628 305.053 211.413 307.24 211.833 309.349C212.253 311.458 213.29 313.396 214.813 314.917C216.335 316.438 218.276 317.473 220.388 317.893C222.499 318.313 224.689 318.098 226.678 317.274C228.668 316.451 230.368 315.057 231.565 313.269C232.761 311.481 233.4 309.378 233.4 307.227C233.4 304.343 232.253 301.578 230.211 299.538C228.169 297.499 225.399 296.353 222.512 296.353Z" fill="#F5F5F5"/>
<g style="mix-blend-mode:multiply" opacity="0.8">
<path d="M228.979 298.527C229.047 299.008 229.084 299.492 229.088 299.977C229.085 301.988 228.523 303.958 227.467 305.669C226.41 307.38 224.899 308.765 223.102 309.67C221.305 310.575 219.291 310.965 217.286 310.796C215.28 310.627 213.36 309.907 211.74 308.713C211.975 310.496 212.649 312.192 213.702 313.651C214.754 315.11 216.152 316.285 217.771 317.071C219.391 317.858 221.179 318.231 222.978 318.158C224.776 318.085 226.529 317.567 228.078 316.652C229.627 315.737 230.925 314.451 231.856 312.912C232.786 311.373 233.32 309.627 233.409 307.832C233.498 306.036 233.14 304.246 232.367 302.623C231.594 300.999 230.43 299.592 228.979 298.527Z" fill="url(#paint23_linear_231_636)"/>
</g>
<g filter="url(#filter3_dii_231_636)">
<path d="M138.782 87.076L310.628 87.2283L305.881 63.6013H143.602L138.782 87.076Z" fill="url(#paint24_linear_231_636)"/>
</g>
<defs>
<filter id="filter0_dii_231_636" x="84.6818" y="0.664366" width="277.141" height="195.218" filterUnits="userSpaceOnUse" color-interpolation-filters="sRGB">
<feFlood flood-opacity="0" result="BackgroundImageFix"/>
<feColorMatrix in="SourceAlpha" type="matrix" values="0 0 0 0 0 0 0 0 0 0 0 0 0 0 0 0 0 0 127 0" result="hardAlpha"/>
<feOffset dy="18.3356"/>
<feGaussianBlur stdDeviation="18.3356"/>
<feColorMatrix type="matrix" values="0 0 0 0 0.178039 0 0 0 0 0.174118 0 0 0 0 0.17098 0 0 0 0.513 0"/>
<feBlend mode="normal" in2="BackgroundImageFix" result="effect1_dropShadow_231_636"/>
<feBlend mode="normal" in="SourceGraphic" in2="effect1_dropShadow_231_636" result="shape"/>
<feColorMatrix in="SourceAlpha" type="matrix" values="0 0 0 0 0 0 0 0 0 0 0 0 0 0 0 0 0 0 127 0" result="hardAlpha"/>
<feOffset dy="8.8826"/>
<feGaussianBlur stdDeviation="4.4413"/>
<feComposite in2="hardAlpha" operator="arithmetic" k2="-1" k3="1"/>
<feColorMatrix type="matrix" values="0 0 0 0 1 0 0 0 0 1 0 0 0 0 1 0 0 0 1 0"/>
<feBlend mode="normal" in2="shape" result="effect2_innerShadow_231_636"/>
<feColorMatrix in="SourceAlpha" type="matrix" values="0 0 0 0 0 0 0 0 0 0 0 0 0 0 0 0 0 0 127 0" result="hardAlpha"/>
<feOffset dy="-8.8826"/>
<feGaussianBlur stdDeviation="4.4413"/>
<feComposite in2="hardAlpha" operator="arithmetic" k2="-1" k3="1"/>
<feColorMatrix type="matrix" values="0 0 0 0 0.538569 0 0 0 0 0.526706 0 0 0 0 0.517216 0 0 0 1 0"/>
<feBlend mode="normal" in2="effect2_innerShadow_231_636" result="effect3_innerShadow_231_636"/>
</filter>
<filter id="filter1_dii_231_636" x="83.2241" y="418.522" width="279.952" height="195.929" filterUnits="userSpaceOnUse" color-interpolation-filters="sRGB">
<feFlood flood-opacity="0" result="BackgroundImageFix"/>
<feColorMatrix in="SourceAlpha" type="matrix" values="0 0 0 0 0 0 0 0 0 0 0 0 0 0 0 0 0 0 127 0" result="hardAlpha"/>
<feOffset dy="18.4724"/>
<feGaussianBlur stdDeviation="18.4724"/>
<feColorMatrix type="matrix" values="0 0 0 0 0.178039 0 0 0 0 0.174118 0 0 0 0 0.17098 0 0 0 0.1735 0"/>
<feBlend mode="normal" in2="BackgroundImageFix" result="effect1_dropShadow_231_636"/>
<feBlend mode="normal" in="SourceGraphic" in2="effect1_dropShadow_231_636" result="shape"/>
<feColorMatrix in="SourceAlpha" type="matrix" values="0 0 0 0 0 0 0 0 0 0 0 0 0 0 0 0 0 0 127 0" result="hardAlpha"/>
<feOffset dy="4.96702"/>
<feGaussianBlur stdDeviation="2.48351"/>
<feComposite in2="hardAlpha" operator="arithmetic" k2="-1" k3="1"/>
<feColorMatrix type="matrix" values="0 0 0 0 0.9988 0 0 0 0 0.9768 0 0 0 0 0.9592 0 0 0 1 0"/>
<feBlend mode="normal" in2="shape" result="effect2_innerShadow_231_636"/>
<feColorMatrix in="SourceAlpha" type="matrix" values="0 0 0 0 0 0 0 0 0 0 0 0 0 0 0 0 0 0 127 0" result="hardAlpha"/>
<feOffset dy="-4.96702"/>
<feGaussianBlur stdDeviation="2.48351"/>
<feComposite in2="hardAlpha" operator="arithmetic" k2="-1" k3="1"/>
<feColorMatrix type="matrix" values="0 0 0 0 0.754441 0 0 0 0 0.737824 0 0 0 0 0.724529 0 0 0 1 0"/>
<feBlend mode="normal" in2="effect2_innerShadow_231_636" result="effect3_innerShadow_231_636"/>
</filter>
<filter id="filter2_dii_231_636" x="0.211395" y="91.2921" width="442.393" height="468.518" filterUnits="userSpaceOnUse" color-interpolation-filters="sRGB">
<feFlood flood-opacity="0" result="BackgroundImageFix"/>
<feColorMatrix in="SourceAlpha" type="matrix" values="0 0 0 0 0 0 0 0 0 0 0 0 0 0 0 0 0 0 127 0" result="hardAlpha"/>
<feOffset dy="34.9135"/>
<feGaussianBlur stdDeviation="34.9135"/>
<feColorMatrix type="matrix" values="0 0 0 0 0.195294 0 0 0 0 0.19451 0 0 0 0 0.192941 0 0 0 0.751 0"/>
<feBlend mode="normal" in2="BackgroundImageFix" result="effect1_dropShadow_231_636"/>
<feBlend mode="normal" in="SourceGraphic" in2="effect1_dropShadow_231_636" result="shape"/>
<feColorMatrix in="SourceAlpha" type="matrix" values="0 0 0 0 0 0 0 0 0 0 0 0 0 0 0 0 0 0 127 0" result="hardAlpha"/>
<feOffset dy="22.1894"/>
<feGaussianBlur stdDeviation="11.0947"/>
<feComposite in2="hardAlpha" operator="arithmetic" k2="-1" k3="1"/>
<feColorMatrix type="matrix" values="0 0 0 0 1 0 0 0 0 1 0 0 0 0 1 0 0 0 1 0"/>
<feBlend mode="normal" in2="shape" result="effect2_innerShadow_231_636"/>
<feColorMatrix in="SourceAlpha" type="matrix" values="0 0 0 0 0 0 0 0 0 0 0 0 0 0 0 0 0 0 127 0" result="hardAlpha"/>
<feOffset dy="-22.1894"/>
<feGaussianBlur stdDeviation="11.0947"/>
<feComposite in2="hardAlpha" operator="arithmetic" k2="-1" k3="1"/>
<feColorMatrix type="matrix" values="0 0 0 0 0.424765 0 0 0 0 0.423059 0 0 0 0 0.419647 0 0 0 1 0"/>
<feBlend mode="normal" in2="effect2_innerShadow_231_636" result="effect3_innerShadow_231_636"/>
</filter>
<filter id="filter3_dii_231_636" x="117.172" y="52.796" width="215.067" height="66.848" filterUnits="userSpaceOnUse" color-interpolation-filters="sRGB">
<feFlood flood-opacity="0" result="BackgroundImageFix"/>
<feColorMatrix in="SourceAlpha" type="matrix" values="0 0 0 0 0 0 0 0 0 0 0 0 0 0 0 0 0 0 127 0" result="hardAlpha"/>
<feOffset dy="10.8053"/>
<feGaussianBlur stdDeviation="10.8053"/>
<feColorMatrix type="matrix" values="0 0 0 0 0.0619608 0 0 0 0 0.0698039 0 0 0 0 0.0784314 0 0 0 0.3275 0"/>
<feBlend mode="normal" in2="BackgroundImageFix" result="effect1_dropShadow_231_636"/>
<feBlend mode="normal" in="SourceGraphic" in2="effect1_dropShadow_231_636" result="shape"/>
<feColorMatrix in="SourceAlpha" type="matrix" values="0 0 0 0 0 0 0 0 0 0 0 0 0 0 0 0 0 0 127 0" result="hardAlpha"/>
<feOffset dy="3.96193"/>
<feGaussianBlur stdDeviation="1.98097"/>
<feComposite in2="hardAlpha" operator="arithmetic" k2="-1" k3="1"/>
<feColorMatrix type="matrix" values="0 0 0 0 0.374863 0 0 0 0 0.422314 0 0 0 0 0.47451 0 0 0 1 0"/>
<feBlend mode="normal" in2="shape" result="effect2_innerShadow_231_636"/>
<feColorMatrix in="SourceAlpha" type="matrix" values="0 0 0 0 0 0 0 0 0 0 0 0 0 0 0 0 0 0 127 0" result="hardAlpha"/>
<feOffset dy="-3.96193"/>
<feGaussianBlur stdDeviation="1.98097"/>
<feComposite in2="hardAlpha" operator="arithmetic" k2="-1" k3="1"/>
<feColorMatrix type="matrix" values="0 0 0 0 0.22848 0 0 0 0 0.257402 0 0 0 0 0.289216 0 0 0 1 0"/>
<feBlend mode="normal" in2="effect2_innerShadow_231_636" result="effect3_innerShadow_231_636"/>
</filter>
<linearGradient id="paint0_linear_231_636" x1="223.252" y1="19" x2="223.252" y2="140.876" gradientUnits="userSpaceOnUse">
<stop stop-color="white"/>
<stop offset="1" stop-color="#9B9895"/>
</linearGradient>
<linearGradient id="paint1_linear_231_636" x1="223.2" y1="436.994" x2="223.2" y2="559.034" gradientUnits="userSpaceOnUse">
<stop stop-color="#C7C3BF"/>
<stop offset="1" stop-color="#F8F2EE"/>
</linearGradient>
<linearGradient id="paint2_linear_231_636" x1="221.408" y1="126.206" x2="221.408" y2="455.069" gradientUnits="userSpaceOnUse">
<stop stop-color="#888887"/>
<stop offset="1" stop-color="white"/>
</linearGradient>
<radialGradient id="paint3_radial_231_636" cx="0" cy="0" r="1" gradientUnits="userSpaceOnUse" gradientTransform="translate(142.442 323.546) scale(15.3314 3.35809)">
<stop offset="0.1" stop-color="#DADADA" stop-opacity="0.95"/>
<stop offset="1" stop-color="white" stop-opacity="0"/>
</radialGradient>
<radialGradient id="paint4_radial_231_636" cx="0" cy="0" r="1" gradientUnits="userSpaceOnUse" gradientTransform="translate(143.737 319.098) scale(15.8457 15.8265)">
<stop stop-color="white"/>
<stop offset="1" stop-color="#B1BFC7"/>
</radialGradient>
<radialGradient id="paint5_radial_231_636" cx="0" cy="0" r="1" gradientUnits="userSpaceOnUse" gradientTransform="translate(138.237 310.946) scale(5.43984 5.43326)">
<stop offset="0.11" stop-color="white"/>
<stop offset="0.95"/>
</radialGradient>
<radialGradient id="paint6_radial_231_636" cx="0" cy="0" r="1" gradientUnits="userSpaceOnUse" gradientTransform="translate(136.969 301.574) scale(1.30538 1.3038)">
<stop offset="0.11" stop-color="white"/>
<stop offset="0.95"/>
</radialGradient>
<radialGradient id="paint7_radial_231_636" cx="0" cy="0" r="1" gradientUnits="userSpaceOnUse" gradientTransform="translate(136.611 312.277) scale(2.02543 2.02297)">
<stop offset="0.11" stop-color="white"/>
<stop offset="0.95"/>
</radialGradient>
<radialGradient id="paint8_radial_231_636" cx="0" cy="0" r="1" gradientUnits="userSpaceOnUse" gradientTransform="translate(145.772 299.244) scale(2.44352 2.44056)">
<stop offset="0.11" stop-color="white"/>
<stop offset="0.95"/>
</radialGradient>
<radialGradient id="paint9_radial_231_636" cx="0" cy="0" r="1" gradientUnits="userSpaceOnUse" gradientTransform="translate(144.894 304.348) scale(0.501712 0.50111)">
<stop offset="0.11" stop-color="white"/>
<stop offset="0.95"/>
</radialGradient>
<radialGradient id="paint10_radial_231_636" cx="0" cy="0" r="1" gradientUnits="userSpaceOnUse" gradientTransform="translate(139.942 305.239) scale(1.03129 1.03005)">
<stop offset="0.11" stop-color="white"/>
<stop offset="0.95"/>
</radialGradient>
<radialGradient id="paint11_radial_231_636" cx="0" cy="0" r="1" gradientUnits="userSpaceOnUse" gradientTransform="translate(151.281 306.771) scale(7.15867 7.15001)">
<stop offset="0.11" stop-color="white"/>
<stop offset="0.95"/>
</radialGradient>
<linearGradient id="paint12_linear_231_636" x1="156.998" y1="305.168" x2="139.807" y2="322.379" gradientUnits="userSpaceOnUse">
<stop/>
<stop offset="0.6" stop-color="white"/>
<stop offset="0.9"/>
</linearGradient>
<linearGradient id="paint13_linear_231_636" x1="142.974" y1="280.299" x2="134.669" y2="308.478" gradientUnits="userSpaceOnUse">
<stop/>
<stop offset="0.6" stop-color="white"/>
<stop offset="0.9"/>
</linearGradient>
<linearGradient id="paint14_linear_231_636" x1="133.486" y1="298.935" x2="158.624" y2="306.125" gradientUnits="userSpaceOnUse">
<stop/>
<stop offset="0.6" stop-color="white"/>
<stop offset="0.9"/>
</linearGradient>
<linearGradient id="paint15_linear_231_636" x1="166.166" y1="293.189" x2="142.41" y2="298.014" gradientUnits="userSpaceOnUse">
<stop/>
<stop offset="0.6" stop-color="white"/>
<stop offset="0.9"/>
</linearGradient>
<linearGradient id="paint16_linear_231_636" x1="151.192" y1="307.218" x2="133.416" y2="283.488" gradientUnits="userSpaceOnUse">
<stop/>
<stop offset="0.6" stop-color="white"/>
<stop offset="0.9"/>
</linearGradient>
<linearGradient id="paint17_linear_231_636" x1="156.867" y1="306.411" x2="157.371" y2="334.435" gradientUnits="userSpaceOnUse">
<stop/>
<stop offset="0.6" stop-color="white"/>
<stop offset="0.9"/>
</linearGradient>
<linearGradient id="paint18_linear_231_636" x1="153.619" y1="334.626" x2="177.002" y2="326.467" gradientUnits="userSpaceOnUse">
<stop/>
<stop offset="0.6" stop-color="white"/>
<stop offset="0.9"/>
</linearGradient>
<linearGradient id="paint19_linear_231_636" x1="140.57" y1="306.562" x2="140.57" y2="318.896" gradientUnits="userSpaceOnUse">
<stop stop-color="white"/>
<stop offset="1"/>
</linearGradient>
<linearGradient id="paint20_linear_231_636" x1="217.075" y1="294.185" x2="229.947" y2="325.138" gradientUnits="userSpaceOnUse">
<stop stop-color="white"/>
<stop offset="1" stop-color="#D4D6D7"/>
</linearGradient>
<linearGradient id="paint21_linear_231_636" x1="233.153" y1="320.465" x2="215.787" y2="298.811" gradientUnits="userSpaceOnUse">
<stop stop-color="white"/>
<stop offset="1" stop-color="#B8BABC"/>
</linearGradient>
<radialGradient id="paint22_radial_231_636" cx="0" cy="0" r="1" gradientUnits="userSpaceOnUse" gradientTransform="translate(219.732 302.341) scale(11.1491 11.1356)">
<stop stop-color="white"/>
<stop offset="1" stop-color="#B1BFC7"/>
</radialGradient>
<linearGradient id="paint23_linear_231_636" x1="220.864" y1="304.378" x2="228.704" y2="317.921" gradientUnits="userSpaceOnUse">
<stop stop-color="white"/>
<stop offset="1" stop-color="#B7C6CE"/>
</linearGradient>
<linearGradient id="paint24_linear_231_636" x1="224.705" y1="63.6013" x2="224.705" y2="87.2283" gradientUnits="userSpaceOnUse">
<stop stop-color="#3E464F"/>
<stop offset="1" stop-color="#5B6774"/>
</linearGradient>
</defs>
</svg>
