<svg width="224.08" height="461" viewBox="0 0 357 461" fill="none" xmlns="http://www.w3.org/2000/svg">
<g filter="url(#filter0_dii_231_637)">
<path d="M107.266 98.5994C107.266 98.5994 127.427 61.0285 125.189 33.212C125.189 33.212 134.151 18.9355 178.21 18.9355C222.27 18.9355 234.96 28.7055 234.96 28.7055C234.96 28.7055 242.587 85.8216 253.044 96.3436C253.044 96.3436 203.6 106.114 176.72 106.114C149.841 106.114 107.266 98.5994 107.266 98.5994Z" fill="url(#paint0_linear_231_637)"/>
</g>
<g filter="url(#filter1_dii_231_637)">
<path d="M253.817 328.206C253.817 328.206 232.01 364.979 233.209 392.852C233.209 392.852 223.609 406.776 179.087 405.08C134.565 403.384 122.11 393.153 122.11 393.153C122.11 393.153 116.585 335.762 106.419 324.846C106.419 324.846 156.756 316.989 183.921 318.021C211.086 319.053 253.817 328.206 253.817 328.206Z" fill="url(#paint1_linear_231_637)"/>
</g>
<path d="M276.743 191.315H285.175C290.402 191.315 294.64 187.082 294.64 181.861V157.151C294.64 151.93 290.402 147.697 285.175 147.697H276.743C271.515 147.697 267.278 151.93 267.278 157.151V181.861C267.278 187.082 271.515 191.315 276.743 191.315Z" fill="#E3DEDA"/>
<g filter="url(#filter2_dii_231_637)">
<path d="M245.159 95.6201H112.513C89.3433 95.6201 70.5608 114.38 70.5608 137.521V288.956C70.5608 312.097 89.3433 330.857 112.513 330.857H245.159C268.329 330.857 287.111 312.097 287.111 288.956V137.521C287.111 114.38 268.329 95.6201 245.159 95.6201Z" fill="url(#paint2_linear_231_637)"/>
</g>
<path d="M248.425 111.33H114.506C99.059 111.33 86.5366 123.837 86.5366 139.265V288.652C86.5366 304.08 99.059 316.588 114.506 316.588H248.425C263.872 316.588 276.395 304.08 276.395 288.652V139.265C276.395 123.837 263.872 111.33 248.425 111.33Z" fill="#4F5964"/>
<path d="M239.194 122.053H122.606C108.36 122.053 96.8118 133.588 96.8118 147.816V279.566C96.8118 293.794 108.36 305.329 122.606 305.329H239.194C253.439 305.329 264.988 293.794 264.988 279.566V147.816C264.988 133.588 253.439 122.053 239.194 122.053Z" fill="#030C10" stroke="black" stroke-width="0.5" stroke-miterlimit="10"/>
<path d="M208.722 213.681C208.722 251.569 230.606 283.637 260.777 294.429C263.861 290.086 265.514 284.891 265.507 279.567V147.822C265.514 142.495 263.859 137.298 260.772 132.954C230.606 143.736 208.722 175.825 208.722 213.681Z" fill="#38A3A5"/>
<path d="M117.764 197.258H119.247V169.854H117.764C115.863 170.993 111.984 173.595 110.235 174.697V176.368C112.079 175.209 116.319 172.399 117.726 171.544H117.764V197.258ZM137.348 169.455C129.876 169.455 125.122 174.925 125.122 183.547C125.122 192.206 129.857 197.657 137.348 197.657C144.84 197.657 149.574 192.206 149.574 183.547C149.574 174.925 144.821 169.455 137.348 169.455ZM137.348 170.861C143.87 170.861 148.034 175.798 148.034 183.547C148.034 191.314 143.87 196.251 137.348 196.251C130.826 196.251 126.662 191.314 126.662 183.547C126.662 175.798 130.808 170.861 137.348 170.861ZM163.511 197.41C164.196 197.41 164.766 196.84 164.766 196.137C164.766 195.454 164.196 194.884 163.511 194.884C162.808 194.884 162.237 195.454 162.237 196.137C162.237 196.84 162.808 197.41 163.511 197.41ZM163.511 182.692C164.196 182.692 164.766 182.122 164.766 181.419C164.766 180.736 164.196 180.166 163.511 180.166C162.808 180.166 162.237 180.736 162.237 181.419C162.237 182.122 162.808 182.692 163.511 182.692ZM176.479 197.258H177.962V169.854H176.479C174.577 170.993 170.699 173.595 168.95 174.697V176.368C170.794 175.209 175.034 172.399 176.441 171.544H176.479V197.258ZM196.063 169.455C188.591 169.455 183.837 174.925 183.837 183.547C183.837 192.206 188.572 197.657 196.063 197.657C203.555 197.657 208.289 192.206 208.289 183.547C208.289 174.925 203.535 169.455 196.063 169.455ZM196.063 170.861C202.585 170.861 206.749 175.798 206.749 183.547C206.749 191.314 202.585 196.251 196.063 196.251C189.541 196.251 185.377 191.314 185.377 183.547C185.377 175.798 189.523 170.861 196.063 170.861Z" fill="white"/>
<path d="M121.999 162.928H116.242V152.521H115.641V163.483H121.999V162.928ZM129.209 155.583H128.616V160.322C128.616 161.994 127.483 163.073 125.984 163.073C124.547 163.073 123.596 162.176 123.596 160.634V155.583H123.01V160.725C123.01 162.495 124.159 163.604 125.862 163.604C127.171 163.604 128.281 162.829 128.631 161.766H128.654V163.483H129.209V155.583ZM130.966 163.483H131.559V158.765C131.559 157.124 132.609 155.993 134.138 155.993C135.605 155.993 136.571 156.912 136.571 158.439V163.483H137.165V158.363C137.165 156.585 136.016 155.461 134.275 155.461C132.928 155.461 131.894 156.213 131.536 157.299H131.521V155.583H130.966V163.483ZM139.553 163.543C139.827 163.543 140.054 163.316 140.054 163.035C140.054 162.761 139.827 162.533 139.553 162.533C139.271 162.533 139.043 162.761 139.043 163.035C139.043 163.316 139.271 163.543 139.553 163.543ZM147.432 155.476H148.017C148.056 153.988 149.227 152.901 150.786 152.901C152.322 152.901 153.509 153.972 153.509 155.362C153.509 156.38 153.06 157.124 151.372 158.894L147.47 163.027V163.483H154.521V162.936H148.337V162.906L151.767 159.282C153.577 157.39 154.11 156.502 154.11 155.339C154.11 153.661 152.665 152.362 150.801 152.362C148.885 152.362 147.47 153.668 147.432 155.476ZM160.81 163.483H161.404V160.74H163.145V160.193H161.404V152.483L160.537 152.491C158.331 155.461 156.695 157.808 155.159 160.186V160.74H160.81V163.483ZM155.821 160.178C157.205 158.051 158.855 155.674 160.795 153.091H160.81V160.193H155.821V160.178ZM170.796 163.604C172.895 163.604 174.325 162.04 174.325 159.533C174.325 157.026 172.895 155.461 170.796 155.461C168.697 155.461 167.275 157.026 167.275 159.533C167.275 162.04 168.697 163.604 170.796 163.604ZM170.796 163.073C169.04 163.073 167.868 161.728 167.868 159.533C167.868 157.338 169.04 155.993 170.796 155.993C172.553 155.993 173.732 157.338 173.732 159.533C173.732 161.721 172.553 163.073 170.796 163.073ZM181.946 157.968C181.71 156.555 180.486 155.461 178.775 155.461C176.66 155.461 175.291 157.041 175.291 159.533C175.291 162.047 176.653 163.604 178.782 163.604C180.463 163.604 181.703 162.602 181.938 161.166H181.353C181.11 162.298 180.128 163.073 178.782 163.073C177.01 163.073 175.884 161.713 175.884 159.533C175.884 157.368 177.01 155.993 178.782 155.993C180.143 155.993 181.125 156.836 181.36 157.968H181.946ZM183.688 153.509V155.583H182.509V156.091H183.688V161.682C183.688 162.989 184.182 163.498 185.338 163.498C185.429 163.498 185.916 163.49 185.969 163.483V162.966C185.939 162.966 185.46 162.974 185.422 162.974C184.623 162.974 184.273 162.602 184.273 161.667V156.091H185.863V155.583H184.273V153.509H183.688ZM188.335 163.543C188.608 163.543 188.837 163.316 188.837 163.035C188.837 162.761 188.608 162.533 188.335 162.533C188.053 162.533 187.825 162.761 187.825 163.035C187.825 163.316 188.053 163.543 188.335 163.543Z" fill="white"/>
<path d="M125.84 253.7V243.878H122.166V242.563H131.004V243.878H127.315V253.7H125.84ZM131.78 244.136V242.563H133.148V244.136H131.78ZM131.78 253.7V245.632H133.148V253.7H131.78ZM135.355 253.7V242.563H136.83V248.086L142.366 242.563H144.367L139.689 247.076L144.572 253.7H142.625L138.655 248.063L136.83 249.841V253.7H135.355ZM145.432 248.246C145.432 247.714 145.619 247.261 145.995 246.886C146.375 246.511 146.828 246.323 147.356 246.323C147.888 246.323 148.342 246.511 148.717 246.886C149.097 247.261 149.287 247.714 149.287 248.246C149.287 248.777 149.097 249.233 148.717 249.613C148.342 249.988 147.888 250.175 147.356 250.175C146.828 250.175 146.375 249.988 145.995 249.613C145.619 249.233 145.432 248.777 145.432 248.246ZM154.102 253.7V243.878H150.429V242.563H159.266V243.878H155.578V253.7H154.102ZM164.149 252.705C163.642 253.135 163.153 253.439 162.681 253.616C162.215 253.794 161.713 253.882 161.175 253.882C160.288 253.882 159.606 253.667 159.129 253.237C158.653 252.801 158.415 252.246 158.415 251.573C158.415 251.178 158.503 250.818 158.68 250.494C158.863 250.165 159.099 249.902 159.388 249.704C159.682 249.506 160.012 249.357 160.377 249.256C160.645 249.185 161.051 249.116 161.594 249.051C162.699 248.919 163.513 248.762 164.035 248.58C164.04 248.393 164.042 248.273 164.042 248.223C164.042 247.666 163.913 247.273 163.654 247.045C163.305 246.736 162.785 246.582 162.095 246.582C161.451 246.582 160.975 246.696 160.666 246.924C160.362 247.146 160.136 247.544 159.989 248.116L158.65 247.934C158.772 247.362 158.972 246.901 159.251 246.552C159.53 246.197 159.933 245.926 160.46 245.739C160.988 245.546 161.598 245.45 162.293 245.45C162.983 245.45 163.543 245.531 163.974 245.693C164.405 245.855 164.722 246.061 164.925 246.308C165.127 246.552 165.27 246.861 165.351 247.235C165.396 247.468 165.419 247.889 165.419 248.496V250.32C165.419 251.591 165.447 252.395 165.503 252.735C165.563 253.069 165.68 253.391 165.853 253.7H164.423C164.281 253.416 164.19 253.085 164.149 252.705ZM164.035 249.651C163.538 249.853 162.792 250.026 161.799 250.168C161.236 250.249 160.838 250.34 160.605 250.441C160.371 250.542 160.191 250.691 160.065 250.889C159.938 251.081 159.875 251.297 159.875 251.535C159.875 251.899 160.012 252.203 160.285 252.446C160.564 252.689 160.97 252.811 161.502 252.811C162.029 252.811 162.499 252.697 162.909 252.469C163.32 252.236 163.622 251.919 163.814 251.52C163.961 251.211 164.035 250.755 164.035 250.152V249.651ZM167.663 253.7V242.563H169.138V248.086L174.675 242.563H176.675L171.998 247.076L176.881 253.7H174.934L170.964 248.063L169.138 249.841V253.7H167.663Z" fill="white"/>
<path d="M149.887 212.805C147.361 212.962 144.96 213.957 143.065 215.633L147.79 220.353C148.407 219.896 149.127 219.598 149.887 219.486V212.805Z" fill="#BBBDBF"/>
<path d="M139.226 224.882C139.383 227.406 140.378 229.805 142.051 231.703L146.783 226.976C146.324 226.361 146.024 225.642 145.909 224.882H139.226Z" fill="#929497"/>
<path d="M142.057 216.639C140.377 218.532 139.38 220.933 139.226 223.459H145.909C146.025 222.698 146.325 221.977 146.783 221.358L142.057 216.639Z" fill="#A6A8AB"/>
<path d="M158.146 215.633C156.247 213.957 153.842 212.962 151.312 212.805V219.486C152.074 219.596 152.797 219.894 153.415 220.353L158.146 215.633Z" fill="#231F20"/>
<path d="M154.428 226.983L159.154 231.703C160.832 229.808 161.827 227.407 161.979 224.882H155.296C155.179 225.642 154.882 226.362 154.428 226.983Z" fill="#58595B"/>
<path d="M161.979 223.459C161.828 220.934 160.833 218.532 159.154 216.639L154.428 221.358C154.886 221.977 155.186 222.698 155.303 223.459H161.979Z" fill="#404041"/>
<path d="M143.065 232.708C144.959 234.384 147.361 235.378 149.887 235.53V228.855C149.129 228.737 148.41 228.44 147.79 227.988L143.065 232.708Z" fill="#808284"/>
<path d="M151.312 235.53C153.842 235.377 156.248 234.384 158.146 232.708L153.415 227.988C152.794 228.444 152.073 228.741 151.312 228.855V235.53Z" fill="#6D6E70"/>
<path style="mix-blend-mode:multiply" d="M134.303 236.019C134.303 237.347 129.382 238.422 123.311 238.422C117.24 238.422 112.315 237.347 112.315 236.019C112.315 234.691 117.237 233.616 123.311 233.616C129.385 233.616 134.303 234.691 134.303 236.019Z" fill="url(#paint3_radial_231_637)"/>
<path d="M123.311 236.404C121.152 236.405 119.042 235.766 117.247 234.568C115.452 233.371 114.053 231.669 113.226 229.677C112.4 227.686 112.184 225.494 112.605 223.379C113.026 221.265 114.065 219.322 115.591 217.798C117.118 216.274 119.062 215.235 121.179 214.815C123.297 214.394 125.491 214.61 127.485 215.436C129.479 216.261 131.183 217.659 132.382 219.451C133.581 221.245 134.221 223.352 134.22 225.508C134.217 228.397 133.066 231.166 131.021 233.209C128.976 235.251 126.203 236.401 123.311 236.404Z" fill="url(#paint4_radial_231_637)"/>
<path d="M123.311 214.692C125.453 214.692 127.546 215.326 129.327 216.515C131.108 217.703 132.496 219.393 133.316 221.369C134.135 223.346 134.35 225.52 133.932 227.619C133.515 229.717 132.483 231.644 130.968 233.157C129.454 234.669 127.524 235.7 125.424 236.117C123.323 236.534 121.145 236.32 119.167 235.502C117.188 234.683 115.497 233.297 114.307 231.518C113.117 229.739 112.481 227.648 112.481 225.509C112.484 222.64 113.626 219.891 115.656 217.863C117.687 215.835 120.44 214.695 123.311 214.692ZM123.311 214.526C121.136 214.526 119.01 215.169 117.201 216.375C115.393 217.582 113.983 219.297 113.15 221.303C112.317 223.31 112.099 225.518 112.523 227.649C112.947 229.78 113.994 231.737 115.531 233.273C117.069 234.809 119.028 235.855 121.161 236.279C123.294 236.704 125.505 236.486 127.515 235.655C129.524 234.824 131.241 233.416 132.45 231.61C133.658 229.804 134.303 227.68 134.303 225.509C134.304 224.066 134.02 222.638 133.467 221.306C132.915 219.973 132.105 218.763 131.085 217.743C130.064 216.723 128.852 215.914 127.518 215.362C126.184 214.81 124.754 214.526 123.311 214.526Z" fill="#8C98A0"/>
<path style="mix-blend-mode:screen" opacity="0.6" d="M123.234 227.765C123.234 228.534 123.006 229.285 122.579 229.924C122.151 230.563 121.543 231.061 120.832 231.356C120.121 231.65 119.339 231.727 118.584 231.577C117.829 231.427 117.136 231.057 116.592 230.513C116.048 229.97 115.677 229.277 115.527 228.523C115.377 227.769 115.454 226.988 115.748 226.278C116.043 225.567 116.542 224.961 117.182 224.533C117.822 224.107 118.574 223.878 119.343 223.878C119.854 223.878 120.36 223.979 120.832 224.175C121.305 224.37 121.734 224.656 122.095 225.017C122.456 225.378 122.743 225.806 122.938 226.278C123.134 226.749 123.234 227.254 123.234 227.765Z" fill="url(#paint5_radial_231_637)"/>
<path style="mix-blend-mode:screen" opacity="0.8" d="M119.37 221.064C119.369 221.249 119.314 221.429 119.211 221.581C119.108 221.734 118.962 221.854 118.791 221.924C118.621 221.994 118.433 222.012 118.252 221.976C118.071 221.939 117.905 221.85 117.775 221.719C117.645 221.589 117.556 221.423 117.52 221.242C117.484 221.061 117.503 220.874 117.574 220.704C117.645 220.533 117.764 220.388 117.918 220.286C118.071 220.183 118.252 220.128 118.436 220.128C118.559 220.128 118.681 220.153 118.794 220.2C118.908 220.247 119.011 220.316 119.098 220.403C119.184 220.49 119.253 220.593 119.3 220.707C119.347 220.82 119.37 220.942 119.37 221.064Z" fill="url(#paint6_radial_231_637)"/>
<path style="mix-blend-mode:screen" opacity="0.8" d="M119.626 228.721C119.626 229.007 119.541 229.288 119.381 229.527C119.221 229.765 118.994 229.951 118.729 230.061C118.463 230.171 118.171 230.199 117.889 230.143C117.607 230.087 117.349 229.948 117.146 229.745C116.943 229.542 116.805 229.283 116.749 229.001C116.693 228.72 116.723 228.428 116.833 228.163C116.943 227.898 117.13 227.672 117.369 227.513C117.609 227.354 117.89 227.27 118.177 227.27C118.368 227.27 118.556 227.308 118.732 227.381C118.908 227.454 119.068 227.561 119.203 227.696C119.337 227.83 119.444 227.99 119.516 228.166C119.589 228.342 119.626 228.53 119.626 228.721Z" fill="url(#paint7_radial_231_637)"/>
<path style="mix-blend-mode:screen" opacity="0.8" d="M126.481 219.395C126.481 219.74 126.379 220.078 126.187 220.365C125.994 220.652 125.721 220.875 125.402 221.008C125.083 221.14 124.731 221.175 124.392 221.107C124.053 221.04 123.742 220.873 123.497 220.629C123.253 220.385 123.086 220.074 123.019 219.736C122.951 219.397 122.986 219.046 123.119 218.727C123.25 218.408 123.475 218.135 123.762 217.943C124.05 217.752 124.388 217.649 124.733 217.649C125.196 217.65 125.64 217.834 125.968 218.161C126.296 218.488 126.48 218.932 126.481 219.395Z" fill="url(#paint8_radial_231_637)"/>
<path style="mix-blend-mode:screen" d="M124.464 223.046C124.464 223.117 124.443 223.186 124.404 223.245C124.364 223.304 124.308 223.35 124.243 223.376C124.177 223.404 124.104 223.411 124.035 223.397C123.965 223.383 123.901 223.349 123.851 223.299C123.801 223.249 123.767 223.185 123.753 223.116C123.739 223.046 123.746 222.974 123.774 222.908C123.801 222.843 123.847 222.787 123.906 222.747C123.965 222.708 124.034 222.687 124.105 222.687C124.152 222.687 124.199 222.696 124.243 222.714C124.287 222.731 124.327 222.758 124.36 222.791C124.393 222.825 124.42 222.864 124.438 222.908C124.455 222.952 124.464 222.998 124.464 223.046Z" fill="url(#paint9_radial_231_637)"/>
<path style="mix-blend-mode:screen" d="M121.287 223.683C121.287 223.829 121.244 223.971 121.163 224.092C121.082 224.213 120.967 224.308 120.832 224.363C120.697 224.419 120.549 224.434 120.406 224.405C120.263 224.377 120.131 224.307 120.028 224.204C119.925 224.101 119.855 223.969 119.826 223.827C119.798 223.683 119.812 223.536 119.868 223.401C119.924 223.266 120.018 223.151 120.14 223.07C120.261 222.989 120.404 222.946 120.55 222.946C120.745 222.946 120.933 223.024 121.071 223.162C121.21 223.3 121.287 223.487 121.287 223.683Z" fill="url(#paint10_radial_231_637)"/>
<path style="mix-blend-mode:screen" opacity="0.8" d="M133.798 224.778C133.798 225.791 133.497 226.78 132.935 227.622C132.371 228.463 131.571 229.119 130.635 229.506C129.699 229.894 128.668 229.995 127.675 229.798C126.681 229.6 125.768 229.113 125.051 228.397C124.334 227.681 123.846 226.769 123.649 225.777C123.451 224.784 123.553 223.755 123.94 222.82C124.328 221.885 124.985 221.086 125.827 220.523C126.67 219.961 127.661 219.661 128.674 219.661C129.347 219.66 130.014 219.792 130.636 220.049C131.258 220.306 131.822 220.683 132.298 221.159C132.774 221.634 133.152 222.198 133.409 222.819C133.666 223.441 133.799 224.106 133.798 224.778Z" fill="url(#paint11_radial_231_637)"/>
<path style="mix-blend-mode:screen" d="M124.378 226.979C127.594 223.703 131.213 222 132.642 223.029C132.605 222.976 132.563 222.927 132.516 222.883C131.203 221.595 127.435 223.308 124.098 226.706C120.762 230.105 119.114 233.902 120.443 235.189C120.49 235.234 120.54 235.275 120.593 235.312C119.523 233.905 121.161 230.258 124.378 226.979Z" fill="url(#paint12_linear_231_637)"/>
<path style="mix-blend-mode:screen" opacity="0.4" d="M125.348 226.189C126.936 220.898 126.973 216.185 125.444 215.379C125.507 215.385 125.57 215.399 125.63 215.419C127.332 215.943 127.365 220.815 125.707 226.301C124.048 231.787 121.327 235.807 119.626 235.279C119.566 235.261 119.508 235.236 119.453 235.206C121.158 235.405 123.749 231.479 125.348 226.189Z" fill="url(#paint13_linear_231_637)"/>
<path style="mix-blend-mode:screen" opacity="0.7" d="M122.829 230.543C118.067 229.243 114.542 226.846 114.734 225.087C114.706 225.146 114.683 225.207 114.665 225.27C114.18 227.042 117.788 229.584 122.726 230.912C127.664 232.239 132.06 231.907 132.542 230.142C132.562 230.083 132.577 230.021 132.585 229.959C131.847 231.569 127.601 231.844 122.829 230.543Z" fill="url(#paint14_linear_231_637)"/>
<path style="mix-blend-mode:screen" d="M122.7 219.87C127.195 218.914 131.176 219.591 131.828 221.377C131.823 221.306 131.813 221.236 131.798 221.167C131.386 219.232 127.269 218.469 122.617 219.461C117.964 220.453 114.512 222.823 114.924 224.765C114.94 224.832 114.96 224.899 114.984 224.964C114.848 223.069 118.207 220.832 122.7 219.87Z" fill="url(#paint15_linear_231_637)"/>
<path style="mix-blend-mode:screen" d="M127.398 222.402C130.788 226.843 131.588 231.97 129.286 234.107C129.385 234.048 129.482 233.984 129.575 233.915C132.19 231.924 131.462 226.58 127.953 221.967C124.444 217.354 119.473 215.256 116.861 217.244C116.768 217.314 116.679 217.39 116.595 217.47C119.274 215.83 124.012 217.961 127.398 222.402Z" fill="url(#paint16_linear_231_637)"/>
<path style="mix-blend-mode:screen" d="M118.267 225.81C118.101 220.5 119.702 216.136 121.882 215.768C121.801 215.762 121.72 215.762 121.64 215.768C119.337 215.84 117.606 220.351 117.778 225.84C117.951 231.33 119.958 235.707 122.261 235.637C122.342 235.634 122.423 235.625 122.503 235.611C120.29 235.379 118.43 231.121 118.267 225.81Z" fill="url(#paint17_linear_231_637)"/>
<path style="mix-blend-mode:screen" opacity="0.7" d="M126.352 233.364C121.952 234.944 117.782 234.602 116.788 232.631C116.805 232.71 116.827 232.789 116.855 232.866C117.632 235.034 121.952 235.462 126.518 233.822C131.083 232.183 134.13 229.103 133.349 226.936C133.322 226.859 133.29 226.785 133.253 226.713C133.745 228.864 130.744 231.784 126.352 233.364Z" fill="url(#paint18_linear_231_637)"/>
<g style="mix-blend-mode:screen">
<path d="M129.877 219.239C129.877 221.081 126.936 222.574 123.311 222.574C119.686 222.574 116.741 221.081 116.741 219.256C116.741 217.43 119.682 215.9 123.311 215.9C126.939 215.9 129.877 217.394 129.877 219.239Z" fill="url(#paint19_linear_231_637)"/>
</g>
<path d="M179.625 237.421C177.186 237.421 174.802 236.699 172.774 235.346C170.747 233.993 169.166 232.069 168.233 229.819C167.299 227.568 167.055 225.092 167.531 222.703C168.007 220.314 169.181 218.119 170.906 216.396C172.63 214.674 174.828 213.501 177.22 213.026C179.612 212.55 182.091 212.794 184.344 213.727C186.597 214.659 188.523 216.238 189.878 218.263C191.233 220.288 191.956 222.669 191.956 225.105C191.952 228.371 190.652 231.501 188.34 233.81C186.029 236.118 182.894 237.417 179.625 237.421Z" fill="url(#paint20_linear_231_637)"/>
<path d="M179.625 212.918C182.039 212.918 184.397 213.633 186.404 214.973C188.41 216.312 189.975 218.215 190.898 220.441C191.821 222.668 192.063 225.119 191.592 227.483C191.122 229.846 189.96 232.018 188.253 233.722C186.546 235.427 184.372 236.587 182.006 237.058C179.639 237.528 177.186 237.286 174.956 236.364C172.727 235.442 170.821 233.88 169.48 231.876C168.139 229.872 167.424 227.515 167.424 225.105C167.427 221.874 168.713 218.776 171.001 216.491C173.288 214.206 176.39 212.921 179.625 212.918ZM179.625 212.659C177.161 212.659 174.752 213.389 172.702 214.757C170.653 216.124 169.056 218.068 168.113 220.342C167.17 222.616 166.923 225.119 167.404 227.533C167.885 229.947 169.071 232.165 170.814 233.906C172.557 235.646 174.777 236.832 177.194 237.312C179.611 237.792 182.117 237.546 184.394 236.603C186.671 235.662 188.617 234.067 189.986 232.02C191.355 229.973 192.086 227.567 192.086 225.105C192.086 221.804 190.773 218.639 188.437 216.305C186.1 213.971 182.93 212.659 179.625 212.659Z" fill="#B2B4B7"/>
<path d="M188.711 225.105C188.711 226.9 188.179 228.655 187.18 230.147C186.182 231.639 184.763 232.803 183.102 233.489C181.442 234.176 179.615 234.356 177.853 234.006C176.09 233.656 174.471 232.791 173.201 231.522C171.93 230.253 171.065 228.636 170.714 226.875C170.363 225.115 170.543 223.29 171.231 221.632C171.919 219.974 173.083 218.556 174.578 217.559C176.071 216.562 177.828 216.03 179.625 216.03C180.819 216.029 182.001 216.264 183.103 216.719C184.206 217.175 185.208 217.844 186.051 218.686C186.896 219.529 187.565 220.53 188.021 221.631C188.478 222.732 188.712 223.913 188.711 225.105Z" fill="url(#paint21_linear_231_637)"/>
<path d="M179.625 232.625C178.136 232.625 176.681 232.184 175.443 231.358C174.205 230.531 173.24 229.357 172.67 227.983C172.1 226.609 171.951 225.097 172.242 223.638C172.532 222.18 173.249 220.84 174.302 219.788C175.355 218.737 176.696 218.021 178.156 217.731C179.617 217.44 181.13 217.589 182.506 218.158C183.882 218.727 185.058 219.691 185.885 220.928C186.712 222.164 187.154 223.618 187.154 225.105C187.151 227.099 186.357 229.01 184.946 230.419C183.534 231.829 181.621 232.622 179.625 232.625Z" fill="url(#paint22_radial_231_637)"/>
<path d="M179.625 217.845C181.063 217.845 182.468 218.271 183.664 219.069C184.859 219.867 185.791 221 186.341 222.327C186.891 223.654 187.035 225.114 186.754 226.522C186.474 227.93 185.781 229.224 184.765 230.239C183.749 231.255 182.453 231.946 181.043 232.226C179.633 232.506 178.172 232.362 176.843 231.813C175.515 231.263 174.38 230.333 173.581 229.139C172.783 227.945 172.356 226.541 172.356 225.105C172.356 223.18 173.122 221.333 174.486 219.972C175.848 218.61 177.697 217.845 179.625 217.845ZM179.625 217.327C178.085 217.327 176.579 217.783 175.298 218.638C174.018 219.492 173.019 220.707 172.43 222.129C171.84 223.55 171.686 225.114 171.987 226.623C172.287 228.132 173.029 229.518 174.118 230.606C175.207 231.694 176.595 232.434 178.106 232.735C179.616 233.035 181.182 232.881 182.605 232.292C184.029 231.703 185.245 230.706 186.101 229.427C186.956 228.148 187.413 226.644 187.413 225.105C187.413 223.042 186.593 221.064 185.132 219.605C183.672 218.147 181.691 217.327 179.625 217.327Z" fill="#F5F5F5"/>
<g style="mix-blend-mode:multiply" opacity="0.8">
<path d="M184.251 218.882C184.3 219.226 184.326 219.573 184.329 219.919C184.327 221.357 183.925 222.767 183.17 223.991C182.414 225.215 181.333 226.205 180.047 226.853C178.762 227.5 177.321 227.779 175.887 227.658C174.452 227.537 173.079 227.022 171.92 226.168C172.088 227.444 172.571 228.657 173.324 229.7C174.076 230.744 175.076 231.584 176.234 232.147C177.393 232.71 178.672 232.977 179.959 232.924C181.245 232.872 182.498 232.502 183.607 231.847C184.715 231.192 185.643 230.273 186.309 229.172C186.975 228.071 187.356 226.822 187.42 225.538C187.484 224.253 187.228 222.973 186.675 221.812C186.122 220.65 185.289 219.644 184.251 218.882Z" fill="url(#paint23_linear_231_637)"/>
</g>
<g filter="url(#filter3_dii_231_637)">
<path d="M119.734 67.6306L242.656 67.7395L239.26 50.8391H123.181L119.734 67.6306Z" fill="url(#paint24_linear_231_637)"/>
</g>
<defs>
<filter id="filter0_dii_231_637" x="70.595" y="0.599913" width="219.12" height="160.521" filterUnits="userSpaceOnUse" color-interpolation-filters="sRGB">
<feFlood flood-opacity="0" result="BackgroundImageFix"/>
<feColorMatrix in="SourceAlpha" type="matrix" values="0 0 0 0 0 0 0 0 0 0 0 0 0 0 0 0 0 0 127 0" result="hardAlpha"/>
<feOffset dy="18.3356"/>
<feGaussianBlur stdDeviation="18.3356"/>
<feColorMatrix type="matrix" values="0 0 0 0 0.178039 0 0 0 0 0.174118 0 0 0 0 0.17098 0 0 0 0.513 0"/>
<feBlend mode="normal" in2="BackgroundImageFix" result="effect1_dropShadow_231_637"/>
<feBlend mode="normal" in="SourceGraphic" in2="effect1_dropShadow_231_637" result="shape"/>
<feColorMatrix in="SourceAlpha" type="matrix" values="0 0 0 0 0 0 0 0 0 0 0 0 0 0 0 0 0 0 127 0" result="hardAlpha"/>
<feOffset dy="8.8826"/>
<feGaussianBlur stdDeviation="4.4413"/>
<feComposite in2="hardAlpha" operator="arithmetic" k2="-1" k3="1"/>
<feColorMatrix type="matrix" values="0 0 0 0 1 0 0 0 0 1 0 0 0 0 1 0 0 0 1 0"/>
<feBlend mode="normal" in2="shape" result="effect2_innerShadow_231_637"/>
<feColorMatrix in="SourceAlpha" type="matrix" values="0 0 0 0 0 0 0 0 0 0 0 0 0 0 0 0 0 0 127 0" result="hardAlpha"/>
<feOffset dy="-8.8826"/>
<feGaussianBlur stdDeviation="4.4413"/>
<feComposite in2="hardAlpha" operator="arithmetic" k2="-1" k3="1"/>
<feColorMatrix type="matrix" values="0 0 0 0 0.538569 0 0 0 0 0.526706 0 0 0 0 0.517216 0 0 0 1 0"/>
<feBlend mode="normal" in2="effect2_innerShadow_231_637" result="effect3_innerShadow_231_637"/>
</filter>
<filter id="filter1_dii_231_637" x="69.4746" y="299.456" width="221.287" height="161.185" filterUnits="userSpaceOnUse" color-interpolation-filters="sRGB">
<feFlood flood-opacity="0" result="BackgroundImageFix"/>
<feColorMatrix in="SourceAlpha" type="matrix" values="0 0 0 0 0 0 0 0 0 0 0 0 0 0 0 0 0 0 127 0" result="hardAlpha"/>
<feOffset dy="18.4724"/>
<feGaussianBlur stdDeviation="18.4724"/>
<feColorMatrix type="matrix" values="0 0 0 0 0.178039 0 0 0 0 0.174118 0 0 0 0 0.17098 0 0 0 0.1735 0"/>
<feBlend mode="normal" in2="BackgroundImageFix" result="effect1_dropShadow_231_637"/>
<feBlend mode="normal" in="SourceGraphic" in2="effect1_dropShadow_231_637" result="shape"/>
<feColorMatrix in="SourceAlpha" type="matrix" values="0 0 0 0 0 0 0 0 0 0 0 0 0 0 0 0 0 0 127 0" result="hardAlpha"/>
<feOffset dy="4.96702"/>
<feGaussianBlur stdDeviation="2.48351"/>
<feComposite in2="hardAlpha" operator="arithmetic" k2="-1" k3="1"/>
<feColorMatrix type="matrix" values="0 0 0 0 0.9988 0 0 0 0 0.9768 0 0 0 0 0.9592 0 0 0 1 0"/>
<feBlend mode="normal" in2="shape" result="effect2_innerShadow_231_637"/>
<feColorMatrix in="SourceAlpha" type="matrix" values="0 0 0 0 0 0 0 0 0 0 0 0 0 0 0 0 0 0 127 0" result="hardAlpha"/>
<feOffset dy="-4.96702"/>
<feGaussianBlur stdDeviation="2.48351"/>
<feComposite in2="hardAlpha" operator="arithmetic" k2="-1" k3="1"/>
<feColorMatrix type="matrix" values="0 0 0 0 0.754441 0 0 0 0 0.737824 0 0 0 0 0.724529 0 0 0 1 0"/>
<feBlend mode="normal" in2="effect2_innerShadow_231_637" result="effect3_innerShadow_231_637"/>
</filter>
<filter id="filter2_dii_231_637" x="0.733856" y="60.7066" width="356.204" height="374.891" filterUnits="userSpaceOnUse" color-interpolation-filters="sRGB">
<feFlood flood-opacity="0" result="BackgroundImageFix"/>
<feColorMatrix in="SourceAlpha" type="matrix" values="0 0 0 0 0 0 0 0 0 0 0 0 0 0 0 0 0 0 127 0" result="hardAlpha"/>
<feOffset dy="34.9135"/>
<feGaussianBlur stdDeviation="34.9135"/>
<feColorMatrix type="matrix" values="0 0 0 0 0.195294 0 0 0 0 0.19451 0 0 0 0 0.192941 0 0 0 0.751 0"/>
<feBlend mode="normal" in2="BackgroundImageFix" result="effect1_dropShadow_231_637"/>
<feBlend mode="normal" in="SourceGraphic" in2="effect1_dropShadow_231_637" result="shape"/>
<feColorMatrix in="SourceAlpha" type="matrix" values="0 0 0 0 0 0 0 0 0 0 0 0 0 0 0 0 0 0 127 0" result="hardAlpha"/>
<feOffset dy="22.1894"/>
<feGaussianBlur stdDeviation="11.0947"/>
<feComposite in2="hardAlpha" operator="arithmetic" k2="-1" k3="1"/>
<feColorMatrix type="matrix" values="0 0 0 0 1 0 0 0 0 1 0 0 0 0 1 0 0 0 1 0"/>
<feBlend mode="normal" in2="shape" result="effect2_innerShadow_231_637"/>
<feColorMatrix in="SourceAlpha" type="matrix" values="0 0 0 0 0 0 0 0 0 0 0 0 0 0 0 0 0 0 127 0" result="hardAlpha"/>
<feOffset dy="-22.1894"/>
<feGaussianBlur stdDeviation="11.0947"/>
<feComposite in2="hardAlpha" operator="arithmetic" k2="-1" k3="1"/>
<feColorMatrix type="matrix" values="0 0 0 0 0.424765 0 0 0 0 0.423059 0 0 0 0 0.419647 0 0 0 1 0"/>
<feBlend mode="normal" in2="effect2_innerShadow_231_637" result="effect3_innerShadow_231_637"/>
</filter>
<filter id="filter3_dii_231_637" x="98.1231" y="40.0338" width="166.143" height="60.1215" filterUnits="userSpaceOnUse" color-interpolation-filters="sRGB">
<feFlood flood-opacity="0" result="BackgroundImageFix"/>
<feColorMatrix in="SourceAlpha" type="matrix" values="0 0 0 0 0 0 0 0 0 0 0 0 0 0 0 0 0 0 127 0" result="hardAlpha"/>
<feOffset dy="10.8053"/>
<feGaussianBlur stdDeviation="10.8053"/>
<feColorMatrix type="matrix" values="0 0 0 0 0.0619608 0 0 0 0 0.0698039 0 0 0 0 0.0784314 0 0 0 0.3275 0"/>
<feBlend mode="normal" in2="BackgroundImageFix" result="effect1_dropShadow_231_637"/>
<feBlend mode="normal" in="SourceGraphic" in2="effect1_dropShadow_231_637" result="shape"/>
<feColorMatrix in="SourceAlpha" type="matrix" values="0 0 0 0 0 0 0 0 0 0 0 0 0 0 0 0 0 0 127 0" result="hardAlpha"/>
<feOffset dy="3.96193"/>
<feGaussianBlur stdDeviation="1.98097"/>
<feComposite in2="hardAlpha" operator="arithmetic" k2="-1" k3="1"/>
<feColorMatrix type="matrix" values="0 0 0 0 0.374863 0 0 0 0 0.422314 0 0 0 0 0.47451 0 0 0 1 0"/>
<feBlend mode="normal" in2="shape" result="effect2_innerShadow_231_637"/>
<feColorMatrix in="SourceAlpha" type="matrix" values="0 0 0 0 0 0 0 0 0 0 0 0 0 0 0 0 0 0 127 0" result="hardAlpha"/>
<feOffset dy="-3.96193"/>
<feGaussianBlur stdDeviation="1.98097"/>
<feComposite in2="hardAlpha" operator="arithmetic" k2="-1" k3="1"/>
<feColorMatrix type="matrix" values="0 0 0 0 0.22848 0 0 0 0 0.257402 0 0 0 0 0.289216 0 0 0 1 0"/>
<feBlend mode="normal" in2="effect2_innerShadow_231_637" result="effect3_innerShadow_231_637"/>
</filter>
<linearGradient id="paint0_linear_231_637" x1="180.155" y1="18.9355" x2="180.155" y2="106.114" gradientUnits="userSpaceOnUse">
<stop stop-color="white"/>
<stop offset="1" stop-color="#9B9895"/>
</linearGradient>
<linearGradient id="paint1_linear_231_637" x1="180.118" y1="317.928" x2="180.118" y2="405.223" gradientUnits="userSpaceOnUse">
<stop stop-color="#C7C3BF"/>
<stop offset="1" stop-color="#F8F2EE"/>
</linearGradient>
<linearGradient id="paint2_linear_231_637" x1="178.836" y1="95.6201" x2="178.836" y2="330.857" gradientUnits="userSpaceOnUse">
<stop stop-color="#888887"/>
<stop offset="1" stop-color="white"/>
</linearGradient>
<radialGradient id="paint3_radial_231_637" cx="0" cy="0" r="1" gradientUnits="userSpaceOnUse" gradientTransform="translate(122.351 236.778) scale(10.9666 2.40205)">
<stop offset="0.1" stop-color="#DADADA" stop-opacity="0.95"/>
<stop offset="1" stop-color="white" stop-opacity="0"/>
</radialGradient>
<radialGradient id="paint4_radial_231_637" cx="0" cy="0" r="1" gradientUnits="userSpaceOnUse" gradientTransform="translate(123.278 233.596) scale(11.3345 11.3208)">
<stop stop-color="white"/>
<stop offset="1" stop-color="#B1BFC7"/>
</radialGradient>
<radialGradient id="paint5_radial_231_637" cx="0" cy="0" r="1" gradientUnits="userSpaceOnUse" gradientTransform="translate(119.343 227.765) scale(3.89113 3.88643)">
<stop offset="0.11" stop-color="white"/>
<stop offset="0.95"/>
</radialGradient>
<radialGradient id="paint6_radial_231_637" cx="0" cy="0" r="1" gradientUnits="userSpaceOnUse" gradientTransform="translate(118.436 221.061) scale(0.933739 0.932612)">
<stop offset="0.11" stop-color="white"/>
<stop offset="0.95"/>
</radialGradient>
<radialGradient id="paint7_radial_231_637" cx="0" cy="0" r="1" gradientUnits="userSpaceOnUse" gradientTransform="translate(118.18 228.717) scale(1.44879 1.44704)">
<stop offset="0.11" stop-color="white"/>
<stop offset="0.95"/>
</radialGradient>
<radialGradient id="paint8_radial_231_637" cx="0" cy="0" r="1" gradientUnits="userSpaceOnUse" gradientTransform="translate(124.733 219.395) scale(1.74785 1.74574)">
<stop offset="0.11" stop-color="white"/>
<stop offset="0.95"/>
</radialGradient>
<radialGradient id="paint9_radial_231_637" cx="0" cy="0" r="1" gradientUnits="userSpaceOnUse" gradientTransform="translate(124.105 223.046) scale(0.358876 0.358445)">
<stop offset="0.11" stop-color="white"/>
<stop offset="0.95"/>
</radialGradient>
<radialGradient id="paint10_radial_231_637" cx="0" cy="0" r="1" gradientUnits="userSpaceOnUse" gradientTransform="translate(120.563 223.683) scale(0.737687 0.7368)">
<stop offset="0.11" stop-color="white"/>
<stop offset="0.95"/>
</radialGradient>
<radialGradient id="paint11_radial_231_637" cx="0" cy="0" r="1" gradientUnits="userSpaceOnUse" gradientTransform="translate(128.674 224.778) scale(5.12061 5.11442)">
<stop offset="0.11" stop-color="white"/>
<stop offset="0.95"/>
</radialGradient>
<linearGradient id="paint12_linear_231_637" x1="132.763" y1="223.632" x2="120.467" y2="235.943" gradientUnits="userSpaceOnUse">
<stop/>
<stop offset="0.6" stop-color="white"/>
<stop offset="0.9"/>
</linearGradient>
<linearGradient id="paint13_linear_231_637" x1="122.732" y1="205.843" x2="116.791" y2="226" gradientUnits="userSpaceOnUse">
<stop/>
<stop offset="0.6" stop-color="white"/>
<stop offset="0.9"/>
</linearGradient>
<linearGradient id="paint14_linear_231_637" x1="115.945" y1="219.173" x2="133.926" y2="224.317" gradientUnits="userSpaceOnUse">
<stop/>
<stop offset="0.6" stop-color="white"/>
<stop offset="0.9"/>
</linearGradient>
<linearGradient id="paint15_linear_231_637" x1="139.321" y1="215.063" x2="122.329" y2="218.515" gradientUnits="userSpaceOnUse">
<stop/>
<stop offset="0.6" stop-color="white"/>
<stop offset="0.9"/>
</linearGradient>
<linearGradient id="paint16_linear_231_637" x1="128.61" y1="225.099" x2="115.895" y2="208.124" gradientUnits="userSpaceOnUse">
<stop/>
<stop offset="0.6" stop-color="white"/>
<stop offset="0.9"/>
</linearGradient>
<linearGradient id="paint17_linear_231_637" x1="132.669" y1="224.521" x2="133.03" y2="244.567" gradientUnits="userSpaceOnUse">
<stop/>
<stop offset="0.6" stop-color="white"/>
<stop offset="0.9"/>
</linearGradient>
<linearGradient id="paint18_linear_231_637" x1="130.346" y1="244.704" x2="147.072" y2="238.867" gradientUnits="userSpaceOnUse">
<stop/>
<stop offset="0.6" stop-color="white"/>
<stop offset="0.9"/>
</linearGradient>
<linearGradient id="paint19_linear_231_637" x1="121.012" y1="224.629" x2="121.012" y2="233.452" gradientUnits="userSpaceOnUse">
<stop stop-color="white"/>
<stop offset="1"/>
</linearGradient>
<linearGradient id="paint20_linear_231_637" x1="175.736" y1="215.776" x2="184.944" y2="237.917" gradientUnits="userSpaceOnUse">
<stop stop-color="white"/>
<stop offset="1" stop-color="#D4D6D7"/>
</linearGradient>
<linearGradient id="paint21_linear_231_637" x1="187.237" y1="234.574" x2="174.815" y2="219.085" gradientUnits="userSpaceOnUse">
<stop stop-color="white"/>
<stop offset="1" stop-color="#B8BABC"/>
</linearGradient>
<radialGradient id="paint22_radial_231_637" cx="0" cy="0" r="1" gradientUnits="userSpaceOnUse" gradientTransform="translate(177.637 221.61) scale(7.97499 7.96535)">
<stop stop-color="white"/>
<stop offset="1" stop-color="#B1BFC7"/>
</radialGradient>
<linearGradient id="paint23_linear_231_637" x1="178.447" y1="223.067" x2="184.054" y2="232.755" gradientUnits="userSpaceOnUse">
<stop stop-color="white"/>
<stop offset="1" stop-color="#B7C6CE"/>
</linearGradient>
<linearGradient id="paint24_linear_231_637" x1="181.195" y1="50.8391" x2="181.195" y2="67.7395" gradientUnits="userSpaceOnUse">
<stop stop-color="#3E464F"/>
<stop offset="1" stop-color="#5B6774"/>
</linearGradient>
</defs>
</svg>
